# xmcd CD database file
#
# Track frame offsets:
#	150
#	18340
#	39005
#	57798
#	68851
#	93985
#	106326
#	124253
#	144913
#	170657
#	193471
#
# Disc length: 2874 seconds
#
# Revision: 0
# Processed by: cddbd v1.5.1PL2 Copyright (c) Steve Scherf et al.
# Submitted via: CDex 1.51
#
DISCID=930b380b
DTITLE=ハミングキッチン - 虹色ソーダ
DYEAR=2005
DGENRE=Japanese
TTITLE0=夕焼けステイション
TTITLE1=アヒルグライダー
TTITLE2=浜昼顔はうつむいて
TTITLE3=プテラノ
TTITLE4=のこのこ
TTITLE5=狼だ！
TTITLE6=老酒
TTITLE7=どどんざあ
TTITLE8=ヌードハート
TTITLE9=夕立
TTITLE10=すすき畑
EXTD=YEAR: 2005
EXTT0=
EXTT1=
EXTT2=
EXTT3=
EXTT4=
EXTT5=
EXTT6=
EXTT7=
EXTT8=
EXTT9=
EXTT10=
PLAYORDER=
